<svg width="226px" height="100px" viewBox="0 0 286 160" version="1.1" xmlns="http://www.w3.org/2000/svg" xmlns:xlink="http://www.w3.org/1999/xlink">
    <g id="Page-1" stroke="none" stroke-width="1" fill="none" fill-rule="evenodd">
        <g id="hbr-logo" fill="#FFFFFF" fill-rule="nonzero">
            <path d="M37.163,90.951 C37.163,98.323 32.117,103.289 20.947,103.289 L0.001,103.289 L0.001,57.594 L20.326,57.594 C30.024,57.594 35.226,61.994 35.226,69.494 C35.226,74.845 32.121,78.571 27.236,79.81 C33.669,81.2 37.2,85.5 37.2,90.951 L37.163,90.951 Z M12.565,76.598 L17.456,76.598 C20.714,76.598 22.729,75.359 22.729,72.254 C22.729,69.149 20.714,67.91 17.456,67.91 L12.565,67.91 L12.565,76.598 L12.565,76.598 Z M12.565,92.817 L19.161,92.817 C22.344,92.817 24.126,91.42 24.126,88.78 C24.126,86.14 22.343,84.747 19.161,84.747 L12.565,84.747 L12.565,92.817 Z M64.737,96.612 C63.728,101.344 60.079,104.216 53.955,104.216 C47.434,104.216 42.859,100.183 42.859,91.724 L42.859,67.444 L55.423,67.444 L55.423,89.091 C55.423,92.691 56.423,94.791 59.323,94.83 C62.58,94.83 64.599,91.88 64.599,86.063 L64.599,67.443 L77.169,67.443 L77.169,103.288 L65.919,103.288 L64.737,96.612 L64.737,96.612 Z M92.779,90.951 C93.484,93.951 95.779,95.451 98.479,95.451 C100.73,95.451 102.277,94.675 102.277,93.125 C102.277,91.575 100.963,90.88 98.402,90.336 L93.589,89.324 C87.08,87.929 83.664,84.592 83.664,78.697 C83.664,70.006 91.111,66.593 99.101,66.593 C107.712,66.593 112.901,70.193 114.201,76.831 L102.795,78.531 C102.401,76.515 101.165,75.354 98.758,75.354 C96.972,75.354 95.73,76.205 95.73,77.605 C95.73,79.005 96.73,79.705 98.63,80.009 L103.437,80.909 C111.355,82.209 114.737,86.509 114.737,92.551 C114.737,101.001 107.362,104.261 98.518,104.261 C90.372,104.261 84.944,101.312 82.926,94.951 L92.779,90.951 L92.779,90.951 Z M126.137,51.93 C129.863,51.93 133.037,54.53 133.037,58.522 C133.037,62.556 129.86,65.121 126.134,65.121 C122.414,65.121 119.231,62.557 119.231,58.522 C119.234,54.5 122.4,51.9 126.1,51.93 L126.137,51.93 Z M132.425,67.444 L132.425,103.289 L119.932,103.289 L119.932,67.444 L132.425,67.444 Z M152.013,74.347 C153.869,68.999 158.062,66.593 163.412,66.593 C168.924,66.593 173.912,69.893 173.912,78.071 L173.912,103.29 L161.419,103.29 L161.419,82.881 C161.419,79.238 160.332,76.986 157.149,76.986 C154.438,76.986 152.109,78.619 152.109,84.126 L152.109,103.289 L139.617,103.289 L139.617,67.444 L150.867,67.444 L152.013,74.347 L152.013,74.347 Z M202.497,90.336 L212.899,93.591 C210.875,101.268 204.514,104.217 197.378,104.217 C186.748,104.217 178.991,97.466 178.991,85.753 C178.991,73.649 185.816,66.593 197.067,66.593 C207.697,66.593 213.167,73.393 213.167,83.353 C213.167,84.653 213.167,86.219 213.012,87.852 L191.138,87.852 C191.371,92.252 193.538,94.652 197.238,94.675 C199.863,94.7 201.6,93.5 202.5,90.336 L202.497,90.336 Z M201.261,81.5 C201.261,78.395 200.174,75.684 196.681,75.684 C193.659,75.684 191.718,78.162 191.408,81.5 L201.261,81.5 Z M227.464,90.951 C228.163,93.951 230.464,95.451 233.164,95.451 C235.416,95.451 236.968,94.675 236.968,93.125 C236.968,91.575 235.649,90.88 233.087,90.336 L228.279,89.324 C221.758,87.929 218.348,84.592 218.348,78.697 C218.348,70.006 225.794,66.593 233.785,66.593 C242.396,66.593 247.585,70.193 248.885,76.831 L237.479,78.531 C237.091,76.515 235.849,75.354 233.443,75.354 C231.657,75.354 230.421,76.205 230.421,77.605 C230.421,79.005 231.421,79.705 233.321,80.009 L238.133,80.909 C246.046,82.209 249.333,86.509 249.333,92.551 C249.333,101.001 241.964,104.261 233.12,104.261 C224.974,104.261 219.546,101.312 217.528,94.951 L227.464,90.951 Z M263.515,90.951 C264.214,93.951 266.515,95.451 269.215,95.451 C271.461,95.451 273.013,94.675 273.013,93.125 C273.013,91.575 271.694,90.88 269.132,90.336 L264.324,89.324 C257.809,87.929 254.393,84.592 254.393,78.697 C254.393,70.006 261.839,66.593 269.83,66.593 C278.441,66.593 283.63,70.193 284.93,76.831 L273.524,78.531 C273.136,76.515 271.894,75.354 269.494,75.354 C267.708,75.354 266.467,76.205 266.467,77.605 C266.467,79.005 267.467,79.705 269.367,80.009 L274.174,80.909 C282.087,82.209 285.474,86.509 285.474,92.551 C285.474,101.001 278.105,104.261 269.255,104.261 C261.109,104.261 255.681,101.312 253.663,94.951 L263.515,90.951 L263.515,90.951 Z M25.602,158.628 C24.127,157.386 23.583,155.678 23.04,153.507 L21.643,147.84 C20.87,144.586 19.55,143.965 16.603,143.965 L12.644,143.965 L12.644,158.628 L0.001,158.628 L0.001,112.93 L19.549,112.93 C29.79,112.93 36.849,116.93 36.849,127.283 C36.849,134.5 32.191,138.071 27.151,138.916 C31.337,139.816 33.451,141.616 34.551,145.616 L36.725,153.454 C37.266,155.454 37.925,157.054 39.525,158.652 L25.602,158.652 L25.602,158.628 Z M12.643,133.72 L17.534,133.72 C21.956,133.72 23.894,131.938 23.894,128.683 C23.894,125.423 21.956,123.634 17.534,123.634 L12.643,123.634 L12.643,133.72 Z M63.781,145.669 L74.177,148.93 C72.158,156.607 65.799,159.557 58.66,159.557 C48.03,159.557 40.273,152.812 40.273,141.092 C40.273,128.988 47.102,121.932 58.349,121.932 C68.984,121.932 74.449,128.732 74.449,138.692 C74.449,139.992 74.449,141.558 74.294,143.192 L52.378,143.192 C52.611,147.592 54.778,149.992 58.478,150.014 C61.142,150 62.9,148.9 63.8,145.669 L63.781,145.669 Z M62.542,136.8 C62.542,133.695 61.452,130.984 57.962,130.984 C54.94,130.984 53,133.463 52.689,136.8 L62.542,136.8 L62.542,136.8 Z M76.196,122.783 L89.387,122.783 L93.501,137.214 C94.97,142.414 95.801,146.014 95.801,145.986 L95.956,145.986 C95.956,145.986 96.732,142.409 98.362,137.214 L103.02,122.783 L115.196,122.783 L102.16,158.628 L88.689,158.628 L76.196,122.783 L76.196,122.783 Z M125.396,107.263 C129.128,107.263 132.296,109.863 132.296,113.862 C132.296,117.861 129.125,120.461 125.393,120.461 C121.673,120.461 118.496,117.897 118.496,113.862 C118.496,109.827 121.676,107.3 125.4,107.263 L125.396,107.263 Z M131.691,122.783 L131.691,158.628 L119.192,158.628 L119.192,122.783 L131.691,122.783 L131.691,122.783 Z M160.838,145.669 L171.241,148.93 C169.217,156.607 162.862,159.557 155.715,159.557 C145.091,159.557 137.334,152.812 137.334,141.092 C137.334,128.988 144.159,121.932 155.41,121.932 C166.034,121.932 171.51,128.732 171.51,138.692 C171.51,139.992 171.51,141.558 171.355,143.192 L149.469,143.192 C149.701,147.592 151.869,149.992 155.569,150.014 C158.199,150 160,148.9 160.8,145.669 L160.838,145.669 Z M159.603,136.8 C159.603,133.695 158.516,130.984 155.029,130.984 C151.995,130.984 150.06,133.463 149.75,136.8 L159.603,136.8 Z M207.728,122.783 L210.29,135.275 C211.603,141.675 212.29,146.575 212.29,146.529 L212.445,146.529 C212.445,146.529 213.221,141.797 214.697,135.43 L217.563,122.783 L229.745,122.783 L220.048,158.628 L206.008,158.628 L203.834,148.153 C202.748,142.881 201.894,136.67 201.894,136.67 L201.745,136.67 C201.745,136.67 200.891,142.881 199.805,148.17 L197.631,158.645 L183.68,158.645 L173.983,122.8 L186.625,122.8 L189.491,135.447 C190.967,141.847 191.791,146.547 191.791,146.546 L191.946,146.546 C191.946,146.546 192.645,141.73 193.959,135.292 L196.533,122.8 L207.728,122.8 L207.728,122.783 Z M79.218,36.155 C79.218,37.855 79.718,38.755 81.018,38.795 C81.789,38.795 82.571,38.484 83.269,38.096 L83.269,46.94 C81.561,48.182 79.931,48.645 77.059,48.64 C72.251,48.64 69.609,46.473 68.212,42.979 C66.203,46.699 63.02,48.795 57.899,48.795 C51.303,48.795 47.192,44.917 47.192,38.79 C47.192,31.107 52.701,27.232 63.483,27.232 L67.131,27.232 L67.131,24.83 C67.131,22.504 66.352,20.871 64.107,20.871 C61.933,20.871 60.927,22.19 60.769,25.141 L48.823,23.275 C49.519,15.909 55.261,11.254 64.496,11.254 C74.731,11.254 79.196,15.754 79.196,23.591 L79.196,36.155 L79.218,36.155 Z M67.116,33.597 L65.486,33.597 C60.986,33.597 59.437,34.991 59.437,37.323 C59.437,39.023 60.637,40.323 62.737,40.344 C64.83,40.344 67.081,39.258 67.081,35.928 L67.081,33.597 L67.116,33.597 Z M112.522,26.225 C111.053,25.682 110.193,25.296 108.18,25.296 C105.23,25.296 101.659,26.458 101.659,32.823 L101.659,47.949 L89.167,47.949 L89.167,12.104 L99.88,12.104 L101.116,20.948 C102.125,14.976 107.172,12.104 113.298,12.104 L112.522,26.225 Z M116.857,12.104 L130.054,12.104 L134.157,26.535 C135.638,31.735 136.457,35.335 136.457,35.301 L136.612,35.301 C136.612,35.301 137.389,31.736 139.019,26.535 L143.671,12.104 L155.853,12.104 L142.823,47.949 L129.35,47.949 L116.857,12.104 Z M188.863,36.155 C188.863,37.855 189.363,38.755 190.663,38.795 C191.439,38.795 192.216,38.484 192.915,38.096 L192.915,46.94 C191.207,48.182 189.577,48.645 186.71,48.645 C181.898,48.645 179.258,46.478 177.86,42.984 C175.847,46.704 172.665,48.8 167.547,48.7840909 C160.948,48.7840909 156.84,44.906 156.84,38.779 C156.84,31.096 162.346,27.221 173.131,27.221 L176.774,27.221 L176.774,24.83 C176.774,22.504 176.003,20.871 173.753,20.871 C171.579,20.871 170.57,22.19 170.415,25.141 L158.466,23.275 C159.17,15.909 164.903,11.254 174.141,11.254 C184.382,11.254 188.841,15.754 188.841,23.591 L188.841,36.155 L188.863,36.155 Z M176.759,33.597 L175.135,33.597 C170.632,33.597 169.079,34.991 169.079,37.323 C169.079,39.023 170.279,40.323 172.379,40.344 C174.47,40.344 176.721,39.258 176.721,35.928 L176.721,33.597 L176.759,33.597 Z M222.186,26.225 C220.71,25.682 219.857,25.296 217.838,25.296 C214.894,25.296 211.322,26.458 211.322,32.823 L211.322,47.949 L198.836,47.949 L198.836,12.104 L209.537,12.104 L210.779,20.948 C211.788,14.976 216.828,12.104 222.962,12.104 L222.186,26.225 L222.186,26.225 Z M252.288,0 L264.852,0 L264.852,47.949 L253.53,47.949 L252.366,41.744 C251.046,46.548 246.776,48.877 241.347,48.877 C232.969,48.877 226.997,42.362 226.997,30.723 C226.997,18.696 232.736,11.252 242.822,11.252 C247.402,11.252 251.022,13.352 252.322,16.758 L252.322,0 L252.288,0 Z M252.366,27.463 C252.366,22.886 250.114,20.408 246.471,20.408 C242.823,20.408 239.717,23.125 239.717,30.258 C239.717,36.158 242.217,39.258 246.317,39.258 C249.494,39.258 252.367,36.857 252.367,31.969 L252.367,27.463 L252.366,27.463 Z M0.001,47.949 L0.001,2.254 L12.724,2.254 L12.724,19.237 L28.393,19.237 L28.393,2.254 L41.116,2.254 L41.116,47.949 L28.393,47.949 L28.393,30.258 L12.724,30.258 L12.724,47.949 L0.001,47.949 Z" id="Shape"></path>
        </g>
    </g>
</svg>