<svg width="432px" height="102px" viewBox="0 0 512 182" version="1.1" xmlns="http://www.w3.org/2000/svg" xmlns:xlink="http://www.w3.org/1999/xlink">
    <title>usa-today</title>
    <g id="Page-1" stroke="none" stroke-width="1" fill="none" fill-rule="evenodd">
        <g id="usa-today" fill="#FFFFFF" fill-rule="nonzero">
            <circle id="Oval" cx="91" cy="91" r="91"></circle>
            <path d="M243.872,17.372 L243.872,53.911 C243.872,62.461 238.742,67.681 231.183,67.681 C223.534,67.681 218.043,62.461 218.043,53.911 L218.043,17.372 L202.023,17.372 L202.023,53.911 C202.023,70.56 213.363,81.09 231.093,81.09 C248.732,81.09 259.802,70.56 259.802,53.911 L259.802,17.372 L243.872,17.372 L243.872,17.372 Z M286.752,34.202 C286.752,31.142 289.542,29.612 293.682,29.612 C298.812,29.612 307.181,32.312 313.841,36.182 L319.87,23.672 C313.391,19.442 304.121,16.652 295.031,16.652 C279.912,16.652 269.923,24.031 269.923,35.641 C269.923,57.96 303.221,51.3 303.221,62.46 C303.222,66.06 300.072,67.95 295.032,67.95 C288.463,67.95 278.743,64.17 272.263,58.5 L266.053,70.83 C273.523,76.95 284.323,80.91 294.852,80.91 C308.891,80.91 320.051,74.25 320.051,61.651 C320.051,38.882 286.752,45.091 286.752,34.202 Z M364.913,17.371 L348.443,17.371 L321.264,80.369 L337.734,80.369 L342.324,68.76 L369.862,68.76 L374.362,80.369 L391.462,80.369 L364.913,17.371 L364.913,17.371 Z M347.004,56.611 L356.184,33.302 L365.183,56.611 L347.004,56.611 L347.004,56.611 Z M202.023,101.54 L202.023,114.5 L220.833,114.5 L219.833,164.627 L235.853,164.627 L236.853,114.5 L255.842,114.5 L255.842,101.54 L202.023,101.54 Z M288.822,101.09 C269.383,101.09 254.802,114.68 254.802,133.039 C254.802,151.488 268.382,165.348 287.822,165.348 C307.35,165.348 322.93,151.398 322.93,133.039 C322.931,114.77 308.351,101.09 288.822,101.09 Z M289.002,151.938 C279.372,151.938 271.183,143.748 271.183,133.129 C271.183,122.509 279.283,114.5 289.002,114.5 C298.721,114.5 306.461,122.51 306.461,133.129 C306.461,143.748 298.722,151.938 289.002,151.938 Z M357.981,101.63 L330.892,101.63 L329.892,164.628 L356.351,164.628 C376.6,164.628 391.459,151.758 391.459,133.129 C391.46,114.41 377.78,101.63 357.981,101.63 L357.981,101.63 Z M358.341,151.848 L346.911,151.848 L346.911,114.41 L357.621,114.41 C367.791,114.41 375.171,122.059 375.171,133.219 C375.171,144.288 368.15,151.848 358.341,151.848 L358.341,151.848 Z M434.612,101.63 L418.142,101.63 L390.963,164.628 L407.433,164.628 L412.023,153.019 L439.561,153.019 L444.061,164.628 L461.161,164.628 L434.612,101.63 L434.612,101.63 Z M416.702,140.868 L425.882,117.559 L434.881,140.868 L416.702,140.868 L416.702,140.868 Z M495.98,101.63 L481.132,129.079 L465.922,101.63 L449.902,101.63 L473.212,144.738 L473.212,164.627 L489.142,164.627 L489.142,144.288 L512,101.63 L495.98,101.63 Z" id="Shape"></path>
        </g>
    </g>
</svg>