<svg width="624px" height="54px" viewBox="0 0 624 54" version="1.1" xmlns="http://www.w3.org/2000/svg" xmlns:xlink="http://www.w3.org/1999/xlink">
    <g id="Page-1" stroke="none" stroke-width="1" fill="none" fill-rule="evenodd">
        <g id="wsj" fill="#FFFFFF" fill-rule="nonzero">
            <path d="M620.3,45.9 C618.5,45.9 617,47.4 617,49.5 C617,51.5 618.5,53.1 620.3,53.1 C622.1,53.1 623.6,51.6 623.6,49.5 C623.6,47.4 622.1,45.9 620.3,45.9 M499.9,52.8 L515.2,52.8 L515.2,51.4 L513.5,51 C512,50.6 511.3,49.8 511.3,47.7 L511.3,27.1 L514.9,27.1 C517.1,27.1 518.2,27.6 518.4,32.2 L518.8,41.9 C519.1,50.6 521.6,53 525.8,53 C530.1,53 531.2,50.1 531.2,45.9 L531.2,44.2 L529.6,44.2 L529.6,45.5 C529.6,48.3 529.2,50.3 528.2,50.3 C527.2,50.3 527.1,49.5 526.9,46.1 L526.4,39.4 C525.8,30.5 524.7,27.4 518.1,26.2 C524.4,24.5 528.2,19.9 528.2,13.3 C528.2,4.8 521.5,0.7 515,0.7 L489.2,0.7 L489.2,2.1 L490.6,2.4 C493.3,3 493.4,4.4 493.4,10.6 L493.4,40.7 C493.4,47.4 491.5,50.7 487.2,50.7 C483.3,50.7 481.2,48.8 481.2,41.5 L481.2,5.7 C481.2,3.6 481.9,3 483.5,2.6 L485.5,2.1 L485.5,0.7 L470,0.7 L470,2.1 L471.7,2.6 C473.2,3.1 473.7,3.7 473.7,5.8 L473.7,41 C473.7,48.9 478.3,53.3 485.3,53.3 C492.3,53.3 495.8,48.9 495.8,40.8 L495.8,8 C495.8,3.9 496.6,2.5 500,2.5 C502.6,2.5 503.8,3.4 503.8,5.9 L503.8,47.9 C503.8,50 503.1,50.8 501.6,51.2 L499.9,51.7 L499.9,52.8 L499.9,52.8 Z M601.4,5.7 C601.4,3.6 602.1,2.9 603.6,2.6 L605.6,2.1 L605.6,0.7 L589.9,0.7 L589.9,2.1 L591.6,2.6 C593.1,3.1 593.8,3.7 593.8,5.8 L593.8,48 C593.8,50 593,51.2 590.6,51.2 C587.9,51.2 587.5,50.3 586.5,45.8 L576.8,0.5 L573.8,0.5 L564.6,44.3 C563.5,49.2 563,50.3 561,51 L559.7,51.4 L559.7,52.8 L570.5,52.8 L570.5,51.4 L568.9,51.1 C566.6,50.6 566,49.4 567.2,43.7 L572.6,15.7 L578.6,45.4 C579.5,49.7 579.4,50.5 576.2,51.1 L574.6,51.4 L574.6,52.8 L614.7,52.8 L614.7,35.6 L613.3,35.6 C612.5,43.5 611,51 604.5,51 L601.5,51 L601.4,5.7 L601.4,5.7 Z M577.8,38.7 L577.8,36.7 L567.6,36.7 L567.3,38.7 L577.8,38.7 Z M535.6,6.6 L535.6,42.7 C535.6,48.1 535.6,50.7 532.9,51.2 L531.5,51.4 L531.5,52.8 L542.6,52.8 L542.6,51.4 C537.8,50.7 537.8,49.1 537.8,43.2 L537.8,8.9 L536,7.2 L554.5,52.8 L557.7,52.8 L557.7,10.8 C557.7,4.6 557.7,3.2 560.7,2.4 L561.8,2.1 L561.8,0.7 L550.4,0.7 L550.4,2.1 L551.7,2.4 C555.6,3.1 555.6,4.6 555.6,10.3 L555.6,36.6 L556.4,36.4 L542.3,0.7 L531.5,0.7 L531.5,2.1 L532.6,2.4 C533.6,2.7 534.3,4.1 535.6,6.6 M511.3,2.5 L514.3,2.5 C517.3,2.5 520.1,4.5 520.1,14.3 C520.1,24.4 518,25.3 513.8,25.3 L511.3,25.3 L511.3,2.5 Z M461,26.2 C461,48 459.2,51.1 455.3,51.1 C451.4,51.1 449.6,48 449.6,26.3 C449.6,5.3 451.5,2.3 455.3,2.3 C459.2,2.3 461,5.4 461,26.2 M469.2,26.7 C469.2,12.3 464.6,0.3 455.2,0.3 C445.8,0.3 441.3,12.2 441.3,26.7 C441.3,41.2 445.9,53.2 455.2,53.2 C464.8,53.1 469.2,41.2 469.2,26.7 M436.9,5.7 C436.9,3.6 437.4,2.9 438.9,2.5 L440.6,2 L440.6,0.6 L425,0.6 L425,2 L426.9,2.5 C428.4,2.9 429.2,3.4 429.2,5.6 L429.2,42 C429.2,47.1 428.7,51.1 425,51.1 C422.6,51.1 420.8,49.2 420.8,47.8 C421,45.5 425,45.6 425.3,41.8 C425.5,39.1 423.8,37.9 422.2,37.7 C419.9,37.4 417,39.4 416.9,43.3 C416.8,48.4 420.2,53 425.8,53 C432.1,53 436.9,48.8 436.9,40.7 L436.9,5.7 L436.9,5.7 Z M184.4,5.7 C184.4,3.6 185.1,2.9 186.6,2.6 L188.6,2.1 L188.6,0.7 L172.9,0.7 L172.9,2.1 L174.6,2.6 C176.1,3.1 176.8,3.7 176.8,5.8 L176.8,48 C176.8,50 176,51.2 173.6,51.2 C170.9,51.2 170.4,50.3 169.4,45.8 L159.7,0.5 L156.7,0.5 L147.5,44.3 C146.4,49.2 145.9,50.3 143.9,51 L142.6,51.4 L142.6,52.8 L153.4,52.8 L153.4,51.4 L151.8,51.1 C149.5,50.6 148.9,49.4 150.1,43.7 L155.5,15.5 L161.5,45.4 C162.3,49.7 162.3,50.5 159.1,51.1 L157.5,51.4 L157.5,52.8 L197.6,52.8 L197.6,35.6 L196.2,35.6 C195.4,43.5 193.9,51 187.4,51 L184.4,51 L184.4,5.7 L184.4,5.7 Z M394.8,2.5 L396.5,2.5 C401.2,2.5 402.8,10 403.3,17.9 L404.7,17.9 L404.7,0.7 L377.3,0.7 L377.3,17.9 L378.7,17.9 C379.2,10 380.8,2.5 385.5,2.5 L387.2,2.5 L387.2,47.7 C387.2,49.8 386.5,50.6 385,51 L383,51.5 L383,52.9 L399.3,52.9 L399.3,51.5 L397,51 C395.6,50.6 394.8,50.2 394.8,47.8 L394.8,2.5 Z M360.3,26.6 L362.6,26.7 C366,26.8 367,28.1 367.7,36.3 L369.1,36.3 L369.1,15.3 L367.7,15.3 C366.9,21.9 366,24.7 362.7,24.7 L360.3,24.8 L360.3,2.5 L365.5,2.5 C371.3,2.5 372.6,9.8 373.4,17.9 L374.8,17.9 L374.8,0.7 L348.7,0.7 L348.7,2.1 L350.4,2.6 C352.1,3.1 352.6,4.1 352.6,5.9 L352.6,47.9 C352.6,50 351.9,50.8 350.4,51.2 L348.7,51.7 L348.7,53.1 L375.5,53.1 L375.5,35.9 L374.1,35.9 C373.2,43.8 372.2,51.3 365.4,51.3 L360.2,51.3 L360.2,26.6 L360.3,26.6 L360.3,26.6 Z M331.8,26.6 L334.1,26.7 C337.5,26.8 338.5,28.1 339.2,36.3 L340.6,36.3 L340.6,15.3 L339.2,15.3 C338.4,21.9 337.5,24.7 334.2,24.7 L331.8,24.8 L331.8,2.5 L337,2.5 C342.8,2.5 344.1,10 344.9,17.9 L346.3,17.9 L346.3,0.7 L319.5,0.7 L319.5,2.1 L321.9,2.6 C323.6,3.1 324.1,4.1 324.1,5.9 L324.1,47.9 C324.1,50 323.4,50.8 321.9,51.2 L320.2,51.7 L320.2,53.1 L347,53.1 L347,35.9 L345.6,35.9 C344.7,43.8 343.7,51.3 336.9,51.3 L331.7,51.3 L331.7,26.6 L331.8,26.6 L331.8,26.6 Z M300.7,2.5 L303,2.5 C306,2.5 308.8,4.5 308.8,14.3 C308.8,24.2 306.7,25.3 302.5,25.3 L300.8,25.3 C300.7,25.3 300.7,2.5 300.7,2.5 Z M289.3,52.8 L304.6,52.8 L304.6,51.4 L302.9,51 C301.4,50.6 300.7,49.8 300.7,47.7 L300.7,27.1 L303.5,27.1 C305.7,27.1 306.8,28 307,32.2 L307.4,41.9 C307.7,50.6 310.2,53 314.4,53 C318.7,53 319.8,50.1 319.8,45.9 L319.8,44.2 L318.2,44.2 L318.2,45.5 C318.2,48.3 317.8,50.3 316.8,50.3 C315.8,50.3 315.7,49.5 315.5,46.1 L315,39.4 C314.4,30.3 313.2,27.4 306.7,26.2 C313,24.5 316.8,19.9 316.8,13.3 C316.8,4.8 310.1,0.7 303.6,0.7 L289.2,0.7 L289.2,2.1 L290.9,2.6 C292.4,3.1 293.1,3.7 293.1,5.8 L293.1,47.8 C293.1,49.9 292.4,50.7 290.9,51.1 L289.2,51.6 L289.2,52.8 L289.3,52.8 L289.3,52.8 Z M277.7,2.5 L279.4,2.5 C284.1,2.5 285.7,10 286.2,17.9 L287.6,17.9 L287.6,0.7 L260.2,0.7 L260.2,17.9 L261.6,17.9 C262.1,10 263.7,2.5 268.4,2.5 L270.1,2.5 L270.1,47.7 C270.1,49.8 269.4,50.6 267.9,51 L265.9,51.5 L265.9,52.9 L281.9,52.9 L281.9,51.5 L279.9,51 C277.9,50.5 277.7,49 277.7,47.7 L277.7,2.5 Z M260.3,39.2 C260.3,23.7 243.3,19.6 243.3,8.4 C243.3,6 244.2,2.4 248,2.4 C253.4,2.4 255.5,9.4 256.4,18 L257.8,18 L257.8,0.8 L256.9,0.8 C256.5,2.5 255.8,3.2 254.9,3.2 C253.2,3.2 252.3,0.5 248.1,0.5 C241.7,0.5 237.3,5.9 237.3,12.9 C237.3,25.7 254.3,31 254.3,42.8 C254.3,48.2 251.8,51.2 248.4,51.2 C243.3,51.2 240,45.2 239.1,35.6 L237.7,35.6 L237.7,52.8 L238.6,52.8 C239.4,50.3 240.3,50.1 241.2,50.1 C242.6,50.1 244.1,53.1 248.5,53.1 C255.1,53.1 260.3,47.3 260.3,39.2 M210.7,5.7 C210.7,3.6 211.4,2.9 212.9,2.6 L214.9,2.1 L214.9,0.7 L199.2,0.7 L199.2,2.1 L200.9,2.6 C202.4,3.1 203.1,3.7 203.1,5.8 L203.1,47.8 C203.1,49.9 202.4,50.7 200.9,51.1 L199.2,51.6 L199.2,53 L224,53 L224,35.8 L222.6,35.8 C221.8,43.7 220.3,51.2 213.8,51.2 L210.8,51.2 L210.8,5.7 L210.7,5.7 Z M160.7,38.7 L160.7,36.7 L150.5,36.7 L150.2,38.7 L160.7,38.7 Z M117,52.9 L120.1,52.9 L127.1,15.7 L126,15.7 L133.7,52.9 L136.4,52.9 L145.6,9.1 C146.6,4.5 147.1,2.9 148.9,2.4 L150.3,2 L150.3,0.6 L139.6,0.6 L139.6,2 L141.2,2.3 C143.5,2.8 144,4.1 142.9,9.7 L136.9,39.1 L137.8,39.1 L131.8,8.1 C131.2,5.2 130.8,2.7 133.3,2.3 L135,2 L135,0.6 L120.4,0.6 L120.4,2 L121.4,2.2 C122.9,2.6 123.1,3.5 123.7,6.4 L126,17.7 L125.5,10.9 L120.3,38.4 L121,38.4 L114.9,8.2 C114.2,5.1 114,2.8 116.4,2.3 L117.5,2.1 L117.5,0.7 L102.6,0.7 L102.6,2.1 L104,2.5 C105.4,2.9 106.1,3.6 107,7.7 L117,52.9 L117,52.9 Z M76.6,26.6 L78.9,26.7 C82.3,26.8 83.3,28.1 84,36.3 L85.4,36.3 L85.4,15.3 L84,15.3 C83.2,21.9 82.3,24.7 79,24.7 L76.6,24.8 L76.6,2.5 L81.8,2.5 C87.6,2.5 88.9,10 89.7,17.9 L91.1,17.9 L91.1,0.7 L65.1,0.7 L65.1,2.1 L66.8,2.6 C68.5,3.1 69,4.1 69,5.9 L69,47.9 C69,50 68.3,50.8 66.8,51.2 L65.1,51.7 L65.1,53.1 L92,53.1 L92,35.9 L90.6,35.9 C89.7,43.8 88.7,51.3 81.9,51.3 L76.7,51.3 L76.6,26.6 Z M29.1,52.8 L44.6,52.8 L44.6,51.4 L42.9,51 C41.5,50.7 40.6,49.8 40.6,47.7 L40.6,27.1 L52,27.1 L52,47.7 C52,49.8 51.1,50.7 49.7,51 L48,51.4 L48,52.8 L63.5,52.8 L63.5,51.4 L61.8,50.9 C60.3,50.5 59.6,49.7 59.6,47.6 L59.6,5.6 C59.6,3.5 60.3,2.8 61.8,2.4 L63.5,1.9 L63.5,0.5 L48,0.5 L48,1.9 L49.7,2.4 C51,2.8 52,3.3 52,5.5 L52,25 L40.6,25 L40.6,5.6 C40.6,3.5 41.4,2.9 42.9,2.5 L44.6,2 L44.6,0.6 L29.1,0.6 L29.1,2 L30.8,2.5 C32.3,3 33,3.6 33,5.7 L33,47.7 C33,49.8 32.3,50.6 30.8,51 L29.1,51.5 L29.1,52.8 L29.1,52.8 Z M17.5,2.5 L19.2,2.5 C23.9,2.5 25.5,10 26,17.9 L27.4,17.9 L27.4,0.7 L0,0.7 L0,17.9 L1.4,17.9 C1.9,10 3.5,2.5 8.2,2.5 L9.9,2.5 L9.9,47.7 C9.9,49.8 9.2,50.6 7.7,51 L5.7,51.5 L5.7,52.9 L22,52.9 L22,51.5 L19.7,51 C18.3,50.6 17.5,50.2 17.5,47.8 L17.5,2.5 L17.5,2.5 Z" id="Shape"></path>
        </g>
    </g>
</svg>