<svg width="151" height="24" viewBox="0 0 151 24" fill="none" xmlns="http://www.w3.org/2000/svg">
<path fill-rule="evenodd" clip-rule="evenodd" d="M42.6629 0.0454968C42.8255 0.0452951 43.0447 0.0688917 43.3203 0.116488C44.7103 0.275514 45.8429 0.911614 46.8211 1.91891C47.3102 2.44903 47.8508 2.9262 48.3399 3.45632C48.5973 3.72133 48.9834 4.22503 49.0349 4.33101C49.0864 4.43709 49.0864 4.62264 49.0349 4.75514C48.9834 4.88765 48.6745 5.3383 48.4428 5.57689C42.9342 11.2494 37.4255 16.9218 31.9168 22.5942C31.0673 23.469 30.0634 24.0256 28.8278 23.9991C27.9526 23.9726 27.2061 23.6015 26.5625 22.9653C32.3801 16.7098 38.4294 10.7191 44.3499 4.51656C44.0153 4.22503 43.7321 3.88045 43.3718 3.64187C42.7797 3.24425 42.0847 3.37676 41.5441 3.9334C39.7937 5.73592 38.069 7.51182 36.3186 9.31434C31.891 13.8735 27.4635 18.4591 23.0359 23.0183C22.7614 23.3011 22.2637 23.522 21.5429 23.6811C20.7933 23.7587 20.1782 23.7114 19.6977 23.5391C18.977 23.2805 18.5054 23.0979 17.9391 22.5147C17.3728 21.9316 6.25246 11.0373 0.434866 5.28526C0.280419 5.12624 0.100221 4.88765 0.0487381 4.72862C-0.00274425 4.5696 -0.0284854 4.41057 0.0487381 4.27807C0.125962 4.14546 0.254678 3.9334 0.383384 3.80089C1.07841 3.08523 1.77343 2.36956 2.46845 1.6538C3.13773 0.991177 3.90998 0.514001 4.81093 0.275514C5.19705 0.16943 5.55743 0.0369253 5.94355 0.0104043C6.35542 -0.0161167 6.69006 0.0104043 7.15341 0.0634463C8.44049 0.222472 9.52163 0.77911 10.4483 1.68032C14.6442 5.78896 18.8143 9.8975 22.9845 14.0326C23.0617 14.0856 23.1132 14.1651 23.1904 14.2446C22.3667 15.1458 21.5429 16.0205 20.7192 16.9218C20.6162 16.8157 20.5647 16.7627 20.5133 16.7098C17.8876 14.112 15.262 11.5409 12.6364 8.94324C10.9374 7.27333 9.23847 5.60331 7.53954 3.9334C6.896 3.2973 6.09801 3.21773 5.48021 3.72133C5.22279 3.9334 4.99112 4.19851 4.73371 4.49003L20.6677 20.1821C20.6677 20.1821 24.4002 16.3387 26.1507 14.5627C30.2436 10.3481 34.3365 6.10701 38.4294 1.89239C39.2531 1.04422 40.2056 0.46106 41.3124 0.195951C41.5184 0.142909 41.7413 0.087648 41.9045 0.0634463C42.0677 0.0392447 42.4189 0.0457993 42.6629 0.0454968ZM59.2006 8.22203C57.893 8.22203 56.7756 8.68812 55.8486 9.61968C54.9268 10.5571 54.4662 11.6861 54.4662 13.0081C54.4662 14.3291 54.9268 15.4586 55.8486 16.3955C56.7756 17.3276 57.893 17.7932 59.2006 17.7932C60.509 17.7932 61.626 17.3276 62.553 16.3955C63.0832 15.8596 63.4724 15.2277 63.7192 14.4987H64.8775C64.5738 15.5602 64.059 16.4554 63.333 17.1844C62.19 18.3403 60.8127 18.9175 59.2006 18.9175C57.5892 18.9175 56.2116 18.3403 55.0685 17.1844C53.9254 16.0291 53.3539 14.6367 53.3539 13.0081C53.3591 11.379 53.933 9.98664 55.0761 8.83081C56.2192 7.67548 57.5968 7.09827 59.2086 7.09827C60.8199 7.09827 62.1975 7.67548 63.3406 8.83081C64.1136 9.61161 64.6411 10.5638 64.9245 11.6885H63.7657C63.5235 10.8919 63.1198 10.2021 62.553 9.61968C61.626 8.68812 60.509 8.22203 59.2006 8.22203ZM25.4516 9.24748C27.3508 7.41844 29.25 5.56298 31.1493 3.73403C31.8276 3.07131 33.3741 3.09783 33.971 3.73403C30.9865 6.64973 27.9748 9.59205 24.9361 12.5608C22.0059 9.67151 19.0214 6.72929 15.9826 3.73403C16.0911 3.65447 16.1997 3.57501 16.7152 3.36294C17.5834 3.04479 18.4245 3.23034 19.1299 3.97262C20.9477 5.82808 22.8198 7.63051 24.6919 9.43303C24.7733 9.51249 24.9361 9.69803 24.9361 9.69803L25.4516 9.24748ZM66.8554 3.63067H67.9753V18.7851H66.8554V3.63067ZM75.4477 7.09817C77.0589 7.09817 78.4371 7.67538 79.5802 8.83121C80.7232 9.98654 81.2924 11.3789 81.2872 13.008V18.7847H80.175V16.5282V13.008C80.175 11.686 79.7138 10.557 78.7925 9.61958C77.8651 8.68802 76.7481 8.22193 75.4396 8.22193C74.1322 8.22193 73.0151 8.68802 72.0877 9.61958C71.1659 10.557 70.7058 11.686 70.7058 13.008C70.7058 14.3295 71.1659 15.4585 72.0877 16.396C73.0151 17.3275 74.1322 17.7936 75.4396 17.7936C76.7481 17.7936 77.8651 17.3275 78.7925 16.396C78.8727 16.3145 78.9489 16.2312 79.0219 16.1469L79.0196 17.6835C77.9935 18.5058 76.8002 18.9174 75.4396 18.9174C73.8284 18.9174 72.4507 18.3402 71.3081 17.1843C70.1646 16.029 69.593 14.6366 69.593 13.008C69.5982 11.3789 70.1726 9.98654 71.3152 8.83121C72.4583 7.67538 73.8364 7.09817 75.4477 7.09817ZM82.7061 7.29299H91.527L84.7605 17.6526H91.3801V18.785H82.6369L89.4185 8.42493H82.7061V7.29299ZM115.112 16.3957C116.033 15.4583 116.494 14.3293 116.494 13.0083C116.494 11.6858 116.033 10.5568 115.112 9.61988C114.184 8.68782 113.068 8.22224 111.759 8.22224C110.452 8.22224 109.335 8.68782 108.407 9.61988C107.485 10.5568 107.025 11.6858 107.025 13.0083C107.025 14.3293 107.485 15.4583 108.407 16.3957C109.335 17.3274 110.452 17.7934 111.759 17.7934C113.068 17.7934 114.184 17.3274 115.112 16.3957ZM111.767 7.09807C113.378 7.09807 114.756 7.67518 115.9 8.83101C117.043 9.98634 117.611 11.3787 117.607 13.0083C117.607 14.6364 117.035 16.0288 115.892 17.1841C114.748 18.34 113.371 18.9172 111.759 18.9172C110.148 18.9172 108.77 18.34 107.628 17.1841C106.484 16.0288 105.912 14.6364 105.912 13.0083C105.918 11.3787 106.492 9.98634 107.635 8.83101C108.778 7.67518 110.155 7.09807 111.767 7.09807ZM128.155 16.3957C129.076 15.4583 129.537 14.3293 129.537 13.0083C129.537 11.6858 129.076 10.5568 128.155 9.61988C127.228 8.68782 126.111 8.22224 124.802 8.22224C123.495 8.22224 122.378 8.68782 121.451 9.61988C120.529 10.5568 120.069 11.6858 120.069 13.0083C120.069 14.3293 120.529 15.4583 121.451 16.3957C122.378 17.3274 123.495 17.7934 124.802 17.7934C126.111 17.7934 127.228 17.3274 128.155 16.3957ZM124.811 7.09807C126.422 7.09807 127.8 7.67518 128.943 8.83101C130.086 9.98634 130.655 11.3787 130.65 13.0083C130.65 14.6364 130.079 16.0288 128.935 17.1841C127.791 18.34 126.415 18.9172 124.802 18.9172C123.191 18.9172 121.814 18.34 120.671 17.1841C119.527 16.0288 118.956 14.6364 118.956 13.0083C118.961 11.3787 119.536 9.98634 120.678 8.83101C121.821 7.67518 123.199 7.09807 124.811 7.09807ZM146.494 12.3426C148.354 12.9648 150.278 13.608 150.278 15.6926C150.278 17.6416 148.793 18.9018 146.494 18.9018C144.416 18.9018 142.849 17.8773 142.299 16.1611L142.274 16.082L143.195 15.536L143.231 15.6644C143.628 17.0654 144.817 17.8691 146.494 17.8691C148.168 17.8691 149.209 17.041 149.209 15.7084C149.209 14.3912 147.984 13.894 146.383 13.3805L146.33 13.3638C144.494 12.7603 142.759 12.1907 142.759 10.1598C142.759 8.30845 144.196 7.01518 146.254 7.01518C147.933 7.01518 149.314 7.92768 149.949 9.45612L149.985 9.54193L149.084 10.0472L149.04 9.94045C148.688 9.07635 147.918 8.04698 146.254 8.04698C144.803 8.04698 143.828 8.88324 143.828 10.1272C143.828 11.3889 144.841 11.7908 146.494 12.3426ZM98.7239 7.12933C100.335 7.12933 101.713 7.70654 102.856 8.86227C103.999 10.0176 104.57 11.41 104.57 13.0382C104.566 14.6676 103.991 16.0601 102.848 17.2155C101.705 18.3712 100.328 18.9484 98.7158 18.9484C97.1045 18.9484 95.7269 18.3712 94.5838 17.2155C93.4407 16.0601 92.8716 14.6676 92.8767 13.0382V3.63077H93.989V9.51854V13.0382C93.989 14.3607 94.4497 15.4896 95.3714 16.427C96.2985 17.3587 97.4159 17.8248 98.7239 17.8248C100.031 17.8248 101.149 17.3587 102.076 16.427C102.998 15.4896 103.458 14.3607 103.458 13.0382C103.458 11.7171 102.998 10.5882 102.076 9.65074C101.149 8.71908 100.031 8.25299 98.7239 8.25299C97.4159 8.25299 96.2985 8.71908 95.3714 9.65074C95.2914 9.73262 95.2146 9.81501 95.1416 9.89982L95.144 8.36321C96.1704 7.54025 97.3637 7.12933 98.7239 7.12933ZM141.252 18.7764H139.599L133.556 13.1253V18.752H132.443V3.63027H133.556V11.2581L138.91 6.394H140.563L134.242 12.1931L141.252 18.7764Z" fill="#212126"/>
</svg>
