<svg width="86" height="86" viewBox="0 0 86 86" fill="none" xmlns="http://www.w3.org/2000/svg">
<path id="icons/clock" fill-rule="evenodd" clip-rule="evenodd" d="M28 0C12.536 0 0 12.536 0 28V58C0 73.464 12.536 86 28 86H58C73.464 86 86 73.464 86 58V28C86 12.536 73.464 0 58 0H28ZM33 15C23.0589 15 15 23.0589 15 33V53C15 62.9411 23.0589 71 33 71H53C62.9411 71 71 62.9411 71 53V33C71 23.0589 62.9411 15 53 15H33ZM46.5026 27.9443H46.0486C45.3675 27.9443 44.6864 28.426 44.6864 29.3895L44.2323 33.9661L39.4646 24.8129C39.0105 24.0903 38.1024 23.8495 37.4213 24.0903L36.9672 24.3312C36.2861 24.8129 35.832 25.5356 36.0591 26.2582L42.416 46.4915C42.8701 47.455 43.3242 48.1776 44.2323 48.6594C44.6864 48.9002 45.1404 49.1411 45.5945 48.9002C46.5026 48.9002 47.4108 48.4185 48.0919 47.6959C48.5459 46.9732 49 46.0098 49 45.0463L47.8648 29.3895C47.8648 28.6669 47.1837 27.9443 46.5026 27.9443Z" fill="#FF6B56"/>
</svg>
