<svg width="86" height="86" viewBox="0 0 86 86" fill="none" xmlns="http://www.w3.org/2000/svg">
<g id="icons/book">
<path id="Combined Shape" fill-rule="evenodd" clip-rule="evenodd" d="M28 0C12.536 0 0 12.536 0 28V58C0 73.464 12.536 86 28 86H58C73.464 86 86 73.464 86 58V28C86 12.536 73.464 0 58 0H28ZM31 13C21.0589 13 13 21.0589 13 31V55C13 64.9411 21.0589 73 31 73H55C64.9411 73 73 64.9411 73 55V31C73 21.0589 64.9411 13 55 13H31Z" fill="#FF6B56"/>
<g id="Group">
<path id="Shape" fill-rule="evenodd" clip-rule="evenodd" d="M29.8929 29C26.6319 29 24 31.6756 24 35C24 38.3244 26.6319 41 29.8929 41H64C60.739 41 58.1071 38.3244 58.1071 35C58.1071 31.6756 60.739 29 64 29H29.8929ZM24 47C27.261 47 29.8929 49.6755 29.8929 53C29.8929 56.3245 27.261 59 24 59H58.1071C61.3681 59 64 56.3245 64 53C64 49.6755 61.3681 47 58.1071 47H24Z" fill="#FF6B56"/>
</g>
</g>
</svg>
