<svg width="86" height="86" viewBox="0 0 86 86" fill="none" xmlns="http://www.w3.org/2000/svg">
<g id="icons/lectura">
<path id="Combined Shape" fill-rule="evenodd" clip-rule="evenodd" d="M30 0C13.4315 0 0 13.4315 0 30V56C0 72.5685 13.4315 86 30 86H56C72.5685 86 86 72.5685 86 56V30C86 13.4315 72.5685 0 56 0H30ZM33 15C23.0589 15 15 23.0589 15 33V53C15 62.9411 23.0589 71 33 71H53C62.9411 71 71 62.9411 71 53V33C71 23.0589 62.9411 15 53 15H33Z" fill="#FF6B56"/>
<g id="noun_read_1226921">
<path id="Shape" fill-rule="evenodd" clip-rule="evenodd" d="M61.3223 33.791H61.1457C60.3951 29.9233 56.9956 27 52.9779 27C50.7704 27 48.7837 27.8995 47.2826 29.2937C45.9581 28.8889 44.5011 28.664 43 28.664C41.4989 28.664 40.0419 28.8889 38.7174 29.2937C37.2163 27.8545 35.2296 27 33.0221 27C29.0044 27 25.649 29.9233 24.8543 33.791H24.6777C23.7506 33.791 23 34.5556 23 35.5C23 36.4444 23.7506 37.209 24.6777 37.209H24.8543C25.6049 41.0767 29.0044 44 33.0221 44C37.6137 44 41.3664 40.2222 41.3664 35.5C41.3664 34.3757 41.1457 33.2963 40.7483 32.3069C41.4547 32.172 42.2053 32.082 43 32.082C43.7947 32.082 44.5453 32.172 45.2517 32.3069C44.8543 33.2963 44.6336 34.3757 44.6336 35.5C44.6336 40.1772 48.3422 44 52.9779 44C56.9956 44 60.351 41.0767 61.1457 37.209H61.3223C62.2494 37.209 63 36.4444 63 35.5C63 34.5556 62.2494 33.791 61.3223 33.791ZM33.0221 40.582C30.2848 40.582 28.0331 38.2884 28.0331 35.5C28.0331 32.7116 30.2848 30.418 33.0221 30.418C35.7594 30.418 38.011 32.7116 38.011 35.5C38.011 38.2884 35.7594 40.582 33.0221 40.582ZM52.9779 40.582C50.2406 40.582 47.989 38.2884 47.989 35.5C47.989 32.7116 50.2406 30.418 52.9779 30.418C55.7152 30.418 57.9669 32.7116 57.9669 35.5C57.9669 38.2884 55.7152 40.582 52.9779 40.582Z" fill="#FF6B56"/>
<path id="Rectangle Copy 19" fill-rule="evenodd" clip-rule="evenodd" d="M39.7021 49.9943C39.7021 49.1955 40.5925 48.7192 41.257 49.1624L47.2628 53.168C47.8563 53.5639 47.8563 54.436 47.2628 54.8319L41.257 58.8375C40.5925 59.2807 39.7021 58.8044 39.7021 58.0056V49.9943Z" fill="#FF6B56"/>
<mask id="mask0" mask-type="alpha" maskUnits="userSpaceOnUse" x="39" y="48" width="9" height="12">
<path id="Rectangle Copy 19_2" fill-rule="evenodd" clip-rule="evenodd" d="M39.7021 49.9943C39.7021 49.1955 40.5925 48.7192 41.257 49.1624L47.2628 53.168C47.8563 53.5639 47.8563 54.436 47.2628 54.8319L41.257 58.8375C40.5925 59.2807 39.7021 58.8044 39.7021 58.0056V49.9943Z" fill="white"/>
</mask>
<g mask="url(#mask0)">
</g>
</g>
</g>
</svg>
